<mxfile host="app.diagrams.net" modified="2023-04-22T15:27:46.038Z" agent="5.0 (Macintosh; Intel Mac OS X 10_15_7) AppleWebKit/537.36 (KHTML, like Gecko) Chrome/112.0.0.0 Safari/537.36" etag="kHGQIitBNnj8yIEdUCl_" version="20.2.2" type="github">
  <diagram id="yhGtNONFC67Cip_SP73b" name="第 1 页">
    <mxGraphModel dx="946" dy="531" grid="1" gridSize="10" guides="1" tooltips="1" connect="1" arrows="1" fold="1" page="1" pageScale="1" pageWidth="827" pageHeight="1169" math="0" shadow="0">
      <root>
        <mxCell id="0" />
        <mxCell id="1" parent="0" />
        <mxCell id="NV1jRAWw8bj1pN4QeVah-1" value="Thread" style="rounded=1;whiteSpace=wrap;html=1;" vertex="1" parent="1">
          <mxGeometry x="130" y="160" width="120" height="60" as="geometry" />
        </mxCell>
        <mxCell id="NV1jRAWw8bj1pN4QeVah-2" value="Entry" style="rounded=1;whiteSpace=wrap;html=1;" vertex="1" parent="1">
          <mxGeometry x="380" y="160" width="50" height="60" as="geometry" />
        </mxCell>
        <mxCell id="NV1jRAWw8bj1pN4QeVah-3" value="" style="endArrow=none;html=1;rounded=0;exitX=1;exitY=0.5;exitDx=0;exitDy=0;entryX=0;entryY=0.5;entryDx=0;entryDy=0;" edge="1" parent="1" source="NV1jRAWw8bj1pN4QeVah-1" target="NV1jRAWw8bj1pN4QeVah-2">
          <mxGeometry width="50" height="50" relative="1" as="geometry">
            <mxPoint x="390" y="300" as="sourcePoint" />
            <mxPoint x="440" y="250" as="targetPoint" />
          </mxGeometry>
        </mxCell>
        <mxCell id="NV1jRAWw8bj1pN4QeVah-4" value="Entry" style="rounded=1;whiteSpace=wrap;html=1;" vertex="1" parent="1">
          <mxGeometry x="430" y="160" width="50" height="60" as="geometry" />
        </mxCell>
        <mxCell id="NV1jRAWw8bj1pN4QeVah-5" value="Entry" style="rounded=1;whiteSpace=wrap;html=1;" vertex="1" parent="1">
          <mxGeometry x="480" y="160" width="50" height="60" as="geometry" />
        </mxCell>
        <mxCell id="NV1jRAWw8bj1pN4QeVah-6" value="Entry" style="rounded=1;whiteSpace=wrap;html=1;" vertex="1" parent="1">
          <mxGeometry x="530" y="160" width="50" height="60" as="geometry" />
        </mxCell>
        <mxCell id="NV1jRAWw8bj1pN4QeVah-7" value="Entry" style="rounded=1;whiteSpace=wrap;html=1;" vertex="1" parent="1">
          <mxGeometry x="580" y="160" width="50" height="60" as="geometry" />
        </mxCell>
        <mxCell id="NV1jRAWw8bj1pN4QeVah-8" value="ThreadLocalMap" style="text;html=1;strokeColor=none;fillColor=none;align=center;verticalAlign=middle;whiteSpace=wrap;rounded=0;" vertex="1" parent="1">
          <mxGeometry x="470" y="110" width="60" height="30" as="geometry" />
        </mxCell>
        <mxCell id="NV1jRAWw8bj1pN4QeVah-9" value="" style="endArrow=classic;html=1;rounded=0;exitX=0.5;exitY=1;exitDx=0;exitDy=0;" edge="1" parent="1" source="NV1jRAWw8bj1pN4QeVah-5">
          <mxGeometry width="50" height="50" relative="1" as="geometry">
            <mxPoint x="390" y="300" as="sourcePoint" />
            <mxPoint x="505" y="290" as="targetPoint" />
          </mxGeometry>
        </mxCell>
        <mxCell id="NV1jRAWw8bj1pN4QeVah-10" value="key: ThreadLocal&lt;br&gt;value: Object" style="rounded=1;whiteSpace=wrap;html=1;" vertex="1" parent="1">
          <mxGeometry x="445" y="290" width="120" height="60" as="geometry" />
        </mxCell>
      </root>
    </mxGraphModel>
  </diagram>
</mxfile>
